<svg width="55" height="60" viewBox="0 0 55 60" fill="none" xmlns="http://www.w3.org/2000/svg">
<path fill-rule="evenodd" clip-rule="evenodd" d="M51.4741 45.5504H2.70916C1.2137 45.5504 0 44.2229 0 42.5872V3.07862C0 1.44297 1.2137 0.115479 2.70916 0.115479H51.4741C52.9695 0.115479 54.1832 1.44297 54.1832 3.07862V42.5872C54.1832 44.2229 52.9695 45.5504 51.4741 45.5504Z" fill="#0455BF"/>
<path fill-rule="evenodd" clip-rule="evenodd" d="M46.0558 41.5995H5.41835C4.42138 41.5995 3.61224 40.7145 3.61224 39.624V6.04171C3.61224 4.95128 4.42138 4.06628 5.41835 4.06628H45.1527C46.1497 4.06628 46.9588 4.95128 46.9588 6.04171V40.6117C46.9588 41.157 46.5543 41.5995 46.0558 41.5995Z" fill="#FDFEFF"/>
<path fill-rule="evenodd" clip-rule="evenodd" d="M5.41835 39.624V6.04171C5.41835 4.95128 6.22749 4.06628 7.22446 4.06628H5.41835C4.42138 4.06628 3.61224 4.95128 3.61224 6.04171V39.624C3.61224 40.7145 4.42138 41.5995 5.41835 41.5995H7.22446C6.22749 41.5995 5.41835 40.7145 5.41835 39.624Z" fill="#DFEAEF"/>
<path fill-rule="evenodd" clip-rule="evenodd" d="M35.2191 22.8329C35.2191 27.7412 31.5792 31.7224 27.0916 31.7224C22.6041 31.7224 18.9641 27.7412 18.9641 22.8329C18.9641 17.9246 22.6041 13.9435 27.0916 13.9435C31.5792 13.9435 35.2191 17.9246 35.2191 22.8329Z" fill="#0455BF"/>
<path fill-rule="evenodd" clip-rule="evenodd" d="M30.7038 26.7838C30.7038 26.0793 31.0518 25.4313 31.6069 25.081C30.4076 24.304 28.8881 25.2562 28.8977 26.7838V29.747C29.5046 29.747 30.1114 29.6693 30.7038 29.5205V26.7838Z" fill="#004787"/>
<path fill-rule="evenodd" clip-rule="evenodd" d="M28.8977 29.7469C25.8406 29.7521 23.0423 27.8794 21.654 24.9005C20.2669 21.9229 20.5258 18.3473 22.3223 15.641C20.3946 17.1687 19.1761 19.5405 18.9882 22.1336C18.7992 24.7267 19.6601 27.2776 21.3446 29.1187C23.0231 30.9558 25.3566 31.8975 27.7262 31.692C30.097 31.4853 32.2703 30.1538 33.6622 28.0441C32.28 29.1503 30.6099 29.7469 28.8977 29.7469Z" fill="#004787"/>
<path fill-rule="evenodd" clip-rule="evenodd" d="M25.2855 26.7838C24.787 26.7838 24.3824 26.3413 24.3824 25.7961V19.8698C24.3824 19.1336 25.088 18.6556 25.6901 18.9848L31.1084 21.948C31.6587 22.2522 31.7766 23.0542 31.3432 23.527C31.2023 23.6824 31.2023 23.6824 25.6901 26.6758C25.5624 26.7483 25.4264 26.7838 25.2855 26.7838Z" fill="#FEBC00"/>
<path fill-rule="evenodd" clip-rule="evenodd" d="M31.1083 21.9481L30.9313 21.8506L27.496 23.7181C26.894 24.0473 26.1884 23.5693 26.1884 22.8331V19.2576L25.6899 18.985C25.0879 18.6557 24.3823 19.1338 24.3823 19.8699V25.7962C24.3775 26.5324 25.0831 27.0105 25.6851 26.6865C31.1925 23.6917 31.1925 23.6917 31.3382 23.5377C31.7717 23.0596 31.6537 22.2563 31.1034 21.9586L31.1083 21.9481Z" fill="#EDAA03"/>
<path fill-rule="evenodd" clip-rule="evenodd" d="M17.158 33.6978H9.03055V35.6732H34.3161V33.6978H17.158Z" fill="#0455BF"/>
<path fill-rule="evenodd" clip-rule="evenodd" d="M50.571 20.8575C51.568 20.8575 52.3771 21.948 52.3771 22.833C52.3771 23.9234 51.568 24.8084 50.571 24.8084C49.574 24.8084 48.7649 23.718 48.7649 22.833C48.7649 21.7425 49.574 20.8575 50.571 20.8575Z" fill="#FEBC00"/>
<path fill-rule="evenodd" clip-rule="evenodd" d="M51.4741 23.8207C50.1616 23.826 49.2875 22.3391 49.8329 21.038C48.6758 21.5977 48.3928 23.2597 49.2875 24.2368C50.1857 25.2193 51.7004 24.9111 52.217 23.6455C51.9822 23.7588 51.7281 23.8207 51.4741 23.8207Z" fill="#EDAA03"/>
<path fill-rule="evenodd" clip-rule="evenodd" d="M43.3466 39.6241C42.3496 39.6241 41.5405 40.5091 41.5405 41.5995V38.6364C41.5405 36.0025 37.9282 36.0025 37.9282 38.6364V34.6855C37.9282 32.0516 34.316 32.0516 34.316 34.6855V26.7838C34.316 24.1499 30.7038 24.1499 30.7038 26.7838V46.708C30.7038 47.8037 29.4949 48.3489 28.7893 47.5772L25.2855 43.7448C24.5847 42.952 23.4228 42.9428 22.7124 43.7237C21.9984 44.5008 22.0068 45.7716 22.7317 46.5381L26.5606 50.7313L28.1729 52.4907C29.8429 54.316 30.7833 56.7958 30.7833 59.3784H42.8156V59.0083C42.8156 57.5886 43.2238 56.2045 43.9811 55.0469C44.7433 53.8946 45.1527 52.5105 45.1527 51.0908V41.5995C45.1527 40.5091 44.3435 39.6241 43.3466 39.6241Z" fill="#ECC19C"/>
<path fill-rule="evenodd" clip-rule="evenodd" d="M14.4489 36.661C12.8402 36.661 12.0359 34.5315 13.1701 33.287C14.308 32.0464 16.255 32.9261 16.255 34.6856C16.255 35.776 15.4458 36.661 14.4489 36.661Z" fill="#FEBC00"/>
<path fill-rule="evenodd" clip-rule="evenodd" d="M15.3519 35.6732C14.0395 35.6785 13.1653 34.1917 13.7107 32.8905C12.5536 33.4502 12.2707 35.1122 13.1653 36.0894C14.0635 37.0718 15.5783 36.7637 16.0948 35.4981C15.86 35.6113 15.606 35.6732 15.3519 35.6732Z" fill="#EDAA03"/>
<path fill-rule="evenodd" clip-rule="evenodd" d="M22.7316 43.7447C22.8447 43.6262 22.9712 43.5234 23.1036 43.4365C21.7527 42.5713 20.1067 43.879 20.4366 45.5502H22.2427C22.1151 44.897 22.2993 44.2175 22.7316 43.7447ZM28.8976 45.5502H30.7037V41.5994H28.8976V45.5502Z" fill="#004787"/>
<mask id="mask0_2_1952" style="mask-type:luminance" maskUnits="userSpaceOnUse" x="0" y="0" width="55" height="60">
<path fill-rule="evenodd" clip-rule="evenodd" d="M0 59.3784H54.1832V0.115479H0V59.3784Z" fill="white"/>
</mask>
<g mask="url(#mask0_2_1952)">
<path fill-rule="evenodd" clip-rule="evenodd" d="M28.8977 41.5995H30.7038V35.6732H28.8977V41.5995ZM30.7038 30.786C30.4919 30.8993 30.2764 31.0073 30.0597 31.0994C29.9838 31.1311 29.9092 31.1613 29.8285 31.1929C29.6262 31.2746 29.4203 31.3418 29.2084 31.4037C29.1193 31.4287 29.0205 31.4603 28.9254 31.4853L28.8929 31.4958V33.6978H30.699L30.7038 30.786Z" fill="#DFEAEF"/>
<path fill-rule="evenodd" clip-rule="evenodd" d="M30.7038 29.5205C30.1114 29.6693 29.5046 29.747 28.8977 29.747V31.4907L28.9302 31.4854C29.3167 31.3827 29.6924 31.2536 30.0596 31.0995C30.28 31.0021 30.4967 30.9046 30.7038 30.7808V29.5205ZM28.8977 35.6733H30.7038V33.6979H28.8977V35.6733Z" fill="#004787"/>
</g>
</svg>
